<svg xmlns="http://www.w3.org/2000/svg" viewBox="0 0 100 65.517" width="100" height="65.517"><path d="M92.51 65.517H7.49A7.49 7.49 0 010 58.027V7.49A7.49 7.49 0 017.49 0h85.02A7.49 7.49 0 01100 7.49v50.538a7.489 7.489 0 01-7.49 7.489z" fill="#ff4b55"/><path d="M68.857 40.921c-.943-.592-1.508.35-1.508.35l-2.748.324 1.374-1.159c.996.081 1.131-.215 1.4-.62.27-.403 1.401-.215 1.401-.215-.161-1.239-1.724-.539-1.724-.539-1.266-.134-1.481.89-1.481.89l-1.967 1.508-4.328-1.282c.449-.495.801-.982.853-1.277.086-.496-3.197-1.33-4.203-2.371-1.005-1.042-1.365-2.694-.898-3.125.467-.431.862.79 1.365 1.796s1.437 1.796 2.048 1.293c.61-.503-.647-1.257-1.222-2.335-.574-1.077.431-1.473.898-1.365.467.108.755 2.335 1.868 3.484 1.114 1.15 2.12.934 2.227.216.108-.719-1.837-1.604-2.233-2.214-.395-.611-.497-1.81.15-1.845.646-.036 3.017 3.497 5.029 4.85 2.19 1.472 3.951-.252 3.664-.97-.288-.72-1.617-.432-3.161-.827-1.545-.395-3.125-2.479-3.592-3.628-.467-1.149-.081-1.15.188-1.041.27.107 1.294 1.616 3.26 2.774 1.967 1.159 3.34.054 3.502-.215.162-.27.783-1.479-1.239-1.194-2.299.323-3.61-1.042-4.553-1.77-.943-.727-1.32-1.723-.889-2.128.431-.404 1.85 1.42 4.005 1.994 1.98.528 2.784-.323 2.73-1.104-.054-.782-.512-.458-2.748-.674-2.236-.215-3.798-2.317-3.88-2.451-.08-.135-.053-.89 1.078-.162 1.132.727 3.152 1.158 4.338 1.104 1.185-.054 1.427-1.643.862-1.912-.566-.27-.7.134-1.994.404-1.293.269-3.717-1.05-4.31-1.67-.593-.62.054-1.024.35-.97.296.053 2.236 1.185 3.96 1.13 1.725-.053 2.452-1.642 2.398-2.127-.054-.485-.539-.89-1.266-.405-.728.485-1.698 1.051-3.314.782-1.616-.27-2.37-1.347-2.155-1.751.215-.405 1.778.296 4.256.027 2.479-.27 2.587-2.452 2.344-2.883-.242-.431-.835-.296-1.67.485-.835.781-2.452.943-3.718.943s-1.293-.62-1.104-1.05c.188-.432 1.535-.324 3.421-.917 1.886-.592 2.963-2.101 3.26-3.044.296-.943-.431-1.67-.727-1.67-.297 0-.108-.431-1.401 1.428-1.293 1.858-4.688 2.586-4.688 2.586a1.418 1.418 0 00-.62-.62c-2.29.458-5.051 2.435-5.051 2.435s.487 1.562-.122 2.78c-.783 1.566-3.468.587-2.738-1.887.608-2.06 2.961-3.306 4.95-3.53 1.987-.223 2.089-.973 2.089-.973s-2.088.68-2.125-.254c.43.088 1.066.126 2.145.03 1.603-.141 2.495-1.277 1.785-1.52-.71-.244-.406.486-1.623 1.054-.868.405-1.779.223-2.235.084.421-.92 2.195-.449 2.195-.449.02-1.603-2.106-1.03-2.106-1.03-.934-2.011-6.394.324-6.394.324l1.293 1.041c-3.16 1.76-3.808 5.1-3.808 5.1s-.646-3.34-3.807-5.1l1.293-1.041s-5.46-2.335-6.394-.324c0 0-2.126-.573-2.106 1.03 0 0 1.774-.47 2.195.45-.456.138-1.367.32-2.235-.085-1.217-.568-.913-1.298-1.623-1.055-.71.243.183 1.38 1.785 1.521 1.079.096 1.714.058 2.145-.03-.037.933-2.125.254-2.125.254s.102.75 2.09.973c1.988.223 4.341 1.47 4.95 3.53.73 2.474-1.956 3.453-2.74 1.886-.608-1.217-.12-2.779-.12-2.779s-2.763-1.977-5.053-2.435c0 0-.377.162-.62.62 0 0-3.393-.728-4.687-2.587-1.293-1.858-1.104-1.427-1.4-1.427-.297 0-1.024.727-.728 1.67.297.943 1.374 2.452 3.26 3.044 1.886.593 3.233.485 3.421.916.189.431.162 1.05-1.104 1.05s-2.883-.161-3.718-.942c-.835-.782-1.428-.916-1.67-.485-.242.43-.135 2.613 2.344 2.882 2.478.27 4.04-.43 4.256-.027.215.405-.539 1.482-2.155 1.752-1.616.269-2.586-.297-3.314-.782-.727-.485-1.212-.08-1.266.404-.054.485.674 2.075 2.398 2.129 1.724.054 3.664-1.078 3.96-1.132.296-.054.943.35.35.97-.592.62-3.017 1.94-4.31 1.67-1.293-.269-1.428-.673-1.994-.404-.566.27-.323 1.86.862 1.913 1.186.054 3.206-.377 4.338-1.104 1.131-.728 1.158.027 1.077.161-.08.135-1.643 2.236-3.88 2.452-2.235.215-2.693-.108-2.747.673-.054.782.75 1.633 2.73 1.105 2.155-.575 3.574-2.398 4.005-1.994.43.404.054 1.401-.89 2.129-.942.727-2.253 2.092-4.552 1.769-2.022-.285-1.4.925-1.239 1.194.162.27 1.535 1.374 3.502.215 1.967-1.158 2.99-2.667 3.26-2.774.27-.108.656-.108.189 1.041-.467 1.15-2.048 3.233-3.592 3.628-1.545.395-2.874.108-3.161.826-.288.719 1.472 2.443 3.663.97 2.012-1.352 4.383-4.885 5.03-4.85.646.037.544 1.235.149 1.845-.395.611-2.34 1.496-2.233 2.215.108.718 1.113.934 2.227-.216 1.114-1.15 1.4-3.376 1.868-3.484.467-.108 1.473.288.898 1.365-.575 1.078-1.832 1.832-1.221 2.335.61.503 1.544-.287 2.047-1.293.503-1.006.898-2.227 1.365-1.796.467.43.108 2.083-.898 3.125-1.006 1.041-4.289 1.875-4.203 2.37.052.296.404.783.853 1.277l-4.328 1.283-1.966-1.509s-.216-1.023-1.482-.889c0 0-1.563-.7-1.724.54 0 0 1.131-.19 1.4.215.27.404.405.7 1.401.62l1.374 1.157-2.748-.323s-.566-.943-1.508-.35c0 0-1.186-.377-1.482.754 0 0 1.024-.188 1.293-.054 0 0 .404.916 1.697.378l2.721.134-1.535.755s-1.94-.62-1.859.996c0 0-.566.647-.054 1.293 0 0 .108-.7.62-.996 0 0 .996.404 1.643-.781l1.967-1.186 1.94.943s-.055 1.05 1.373.62c0 0 .485.323.62.754 0 0 .62-.673-.378-1.455 0 0-.242-.916-1.427-.565l-1.105-.566 4.087-1.213c.708.674 1.471 1.226 1.738 1.134.528-.183.934-.73 1.298-1.501.365-.771 2.009-3.449 2.82-3.428.811.02 1.177.669.974 1.825-.203 1.157-1.784 3.371-2.808 3.83-1.024.457-1.186.673-2.129.592-.942-.081-1.266.323-1.05.862.215.539 1.276.881 2.317.485 1.131-.431 1.562-1.024 1.993-.673.431.35-.458 1.616-1.67 1.993s-2.128.135-1.94.89c.189.753 1.482.807 2.317.322.835-.485 1.778-1.831 2.02-1.4.243.43.081 1.535-.727 2.128-.808.593-1.727.244-1.912.781-.27.781.673 1.293 1.4.997.728-.297 1.563-1.212 1.94-2.02.377-.809 1.077-.108.862.646-.215.754-.036 1.374-1.58 2.559L50 55.172l2.874-4.418c-1.545-1.185-1.365-1.805-1.58-2.56-.216-.753.484-1.454.861-.646.377.809 1.213 1.725 1.94 2.02.727.297 1.67-.215 1.4-.996-.184-.537-1.104-.188-1.912-.781-.808-.593-.97-1.697-.727-2.128.242-.431 1.185.916 2.02 1.4.835.485 2.128.431 2.317-.323.188-.754-.727-.512-1.94-.889-1.212-.377-2.101-1.643-1.67-1.993.431-.35.862.242 1.994.673 1.04.396 2.1.054 2.316-.485.216-.539-.107-.943-1.05-.862-.943.08-1.105-.135-2.129-.593-1.023-.458-2.604-2.672-2.807-3.829-.203-1.156.162-1.805.973-1.825.812-.02 2.455 2.657 2.82 3.428.365.77.77 1.318 1.298 1.5.267.093 1.03-.46 1.738-1.133l4.087 1.213-1.104.566c-1.186-.35-1.428.565-1.428.565-.997.782-.377 1.455-.377 1.455.134-.431.62-.754.62-.754 1.427.43 1.373-.62 1.373-.62l1.94-.943 1.966 1.186c.647 1.185 1.644.78 1.644.78.512.297.62.997.62.997.511-.646-.055-1.293-.055-1.293.081-1.616-1.859-.996-1.859-.996l-1.535-.755 2.72-.134c1.294.538 1.698-.378 1.698-.378.27-.134 1.293.054 1.293.054-.297-1.13-1.483-.754-1.483-.754z" fill="#464655"/></svg>