<svg xmlns="http://www.w3.org/2000/svg" viewBox="0 0 100 65.517" width="100" height="65.517"><path d="M92.51 65.517H7.49A7.49 7.49 0 010 58.027V7.49A7.49 7.49 0 017.49 0h85.02A7.49 7.49 0 01100 7.49v50.538a7.489 7.489 0 01-7.49 7.489z" fill="#41479b"/><path fill="#ffe15a" d="M86.207 0v65.517L20.689 0z"/><path d="M40.498 24.394l.994 2.98 3.14.024a.253.253 0 01.149.457l-2.527 1.866.948 2.994a.253.253 0 01-.39.283l-2.554-1.827-2.555 1.827a.253.253 0 01-.39-.283l.948-2.994-2.526-1.866a.253.253 0 01.148-.457l3.14-.024.994-2.98a.254.254 0 01.481 0zm-7.184-7.184l.994 2.98 3.14.024a.253.253 0 01.15.457l-2.527 1.866.947 2.994a.253.253 0 01-.389.283l-2.555-1.827-2.555 1.827a.253.253 0 01-.389-.283l.948-2.994-2.527-1.866a.253.253 0 01.148-.457l3.14-.024.995-2.98a.254.254 0 01.48 0zm-7.184-7.183l.994 2.979 3.14.024a.253.253 0 01.15.457l-2.527 1.866.947 2.994a.253.253 0 01-.389.283l-2.555-1.827-2.555 1.827a.253.253 0 01-.389-.283l.948-2.994-2.527-1.866a.253.253 0 01.149-.457l3.14-.024.994-2.98a.254.254 0 01.48 0zm-7.184-7.184l.994 2.98 3.14.023a.253.253 0 01.15.457L20.702 8.17l.947 2.994a.253.253 0 01-.389.283L18.706 9.62l-2.555 1.826a.253.253 0 01-.389-.283l.948-2.994-2.527-1.866a.253.253 0 01.148-.457l3.14-.024.995-2.98a.254.254 0 01.48 0zM69.234 53.13l.994 2.98 3.14.024a.253.253 0 01.149.456l-2.527 1.866.948 2.995a.253.253 0 01-.39.282l-2.554-1.826-2.555 1.826a.253.253 0 01-.389-.282l.947-2.995-2.526-1.866a.253.253 0 01.148-.456l3.14-.025.995-2.98a.253.253 0 01.48 0zm-7.184-7.184l.994 2.98 3.14.024a.253.253 0 01.149.457l-2.527 1.866.948 2.994a.253.253 0 01-.39.282l-2.554-1.826-2.555 1.826a.253.253 0 01-.39-.282l.948-2.994-2.526-1.866a.253.253 0 01.148-.457l3.14-.025.994-2.979a.253.253 0 01.481 0zm-7.184-7.184l.994 2.98 3.14.024a.253.253 0 01.149.457l-2.527 1.866.948 2.994a.253.253 0 01-.389.282l-2.555-1.826-2.555 1.826a.253.253 0 01-.389-.282l.947-2.994-2.526-1.866a.253.253 0 01.148-.457l3.14-.024.995-2.98a.253.253 0 01.48 0zm-7.184-7.184l.994 2.98 3.14.024a.253.253 0 01.149.457l-2.527 1.866.948 2.994a.253.253 0 01-.389.282l-2.555-1.826-2.555 1.826a.253.253 0 01-.389-.282l.948-2.994-2.527-1.866a.253.253 0 01.148-.457l3.14-.024.995-2.98a.254.254 0 01.48 0zM8.192 0l1.334.985-.948 2.994a.253.253 0 00.39.283l2.554-1.826 2.555 1.826a.253.253 0 00.389-.283L13.519.985 14.853 0zm72.36 63.318l-3.14-.025-.994-2.98a.253.253 0 00-.48 0l-.994 2.98-3.14.025a.253.253 0 00-.149.456l2.36 1.743h4.327l2.36-1.743a.253.253 0 00-.15-.456z" fill="#f5f5f5"/></svg>