<svg xmlns="http://www.w3.org/2000/svg" viewBox="0 0 100.001 65.518" width="100.001" height="65.518"><path d="M92.511 0H7.49A7.49 7.49 0 000 7.49v50.539a7.49 7.49 0 007.49 7.489h85.02a7.49 7.49 0 007.49-7.49V7.49A7.49 7.49 0 0092.51 0z" fill="#ff4b55"/><path d="M16.603 10.245l1.644 4.929 5.195.04c.673.005.952.864.41 1.263l-4.179 3.086 1.567 4.954c.203.641-.527 1.172-1.074.78l-4.227-3.02-4.227 3.02c-.547.392-1.277-.139-1.074-.78l1.567-4.954-4.18-3.086c-.54-.4-.262-1.258.41-1.263l5.196-.04 1.644-4.929c.213-.638 1.115-.638 1.328 0zm18.866 1.215l1.179 1.607 1.902-.595a.268.268 0 01.298.413l-1.165 1.617 1.154 1.626c.15.21-.055.49-.301.41l-1.898-.607-1.19 1.6a.269.269 0 01-.484-.16l-.008-1.993-1.889-.636a.269.269 0 01.002-.51l1.892-.624.023-1.993c.002-.258.332-.363.485-.155zm-7.176-4.791l1.98.215.846-1.805a.269.269 0 01.506.06l.408 1.95 1.977.246a.269.269 0 01.1.5l-1.729.99.377 1.957a.269.269 0 01-.444.25l-1.476-1.34-1.745.964a.269.269 0 01-.375-.345l.817-1.818L28.08 7.13a.268.268 0 01.213-.462zm3.132 19.315l-1.179 1.608-1.902-.595a.268.268 0 00-.298.413l1.165 1.617-1.154 1.625c-.15.21.055.49.301.411l1.898-.607 1.19 1.6a.269.269 0 00.483-.16l.01-1.993 1.888-.637a.269.269 0 00-.002-.51l-1.893-.624-.022-1.993a.269.269 0 00-.485-.155zm7.175-4.502l-1.98.215-.846-1.805a.269.269 0 00-.506.06l-.408 1.95-1.977.246a.269.269 0 00-.1.5l1.729.99-.377 1.957a.269.269 0 00.444.25l1.476-1.34 1.745.964c.226.125.48-.11.375-.345l-.817-1.818 1.455-1.362a.268.268 0 00-.212-.462z" fill="#ffe15a"/></svg>