<svg xmlns="http://www.w3.org/2000/svg" viewBox="0 0 100 65.496" width="100" height="65.496"><path d="M99.922 7.28C99.805 3.24 96.507 0 92.448 0H7.475C3.357.02 0 3.357 0 7.494v50.722a7.158 7.158 0 00.644 2.83c.039.117.098.215.156.313.059.097.098.195.156.312v.02l.176.292s0 .02.02.02c.058.097.117.175.175.273l.02.02c.058.097.117.175.195.253 0 .02.02.02.02.039.058.078.136.156.194.234l.04.04c.058.077.136.155.195.233l.039.04c.058.078.136.136.214.214l.04.04c.077.058.136.136.214.194l.058.059c.079.058.137.117.215.176.02.019.04.039.078.058.078.059.137.117.215.156.02.02.058.04.078.059.078.058.137.097.215.136.039.02.058.04.097.059.078.039.137.098.215.137.039.02.078.039.098.058.058.04.136.078.195.117l.117.059a.911.911 0 00.195.097c.039.02.078.04.137.059.058.039.136.058.195.098.039.02.097.039.136.058.059.02.137.059.195.078.059.02.098.04.157.059.058.02.117.039.195.058a.57.57 0 00.175.04l.176.058c.059.02.117.02.176.039.058.02.117.02.175.039.059.02.137.02.196.039.058.02.117.02.175.039.078.02.137.02.215.02.058 0 .097.019.156.019.078 0 .156.02.254.02.039 0 .078 0 .136.019h85.734c.04 0 .079 0 .137-.02.078 0 .156-.02.254-.02.058 0 .097-.019.156-.019.078 0 .137-.02.215-.02a.57.57 0 00.175-.038c.059-.02.137-.02.195-.04.059-.019.117-.019.176-.038.059-.02.117-.02.176-.04l.175-.058a.57.57 0 01.176-.039c.059-.02.117-.039.195-.058.059-.02.098-.04.156-.059.059-.02.137-.058.195-.078.04-.02.098-.039.137-.058a.911.911 0 00.195-.098.963.963 0 01.137-.059c.058-.039.136-.058.195-.097l.117-.059c.078-.039.137-.078.195-.117.04-.02.078-.039.098-.058a1.31 1.31 0 00.215-.137c.039-.02.058-.039.097-.059.078-.039.137-.097.215-.136.02-.02.058-.04.078-.059.078-.058.137-.097.215-.156a.268.268 0 01.078-.058c.078-.059.136-.118.214-.176l.059-.059c.078-.058.137-.136.215-.195.02-.02.039-.039.058-.039l.215-.215.039-.039c.078-.078.136-.156.195-.234l.039-.039c.058-.078.137-.156.195-.234 0-.02.02-.02.02-.039.058-.078.136-.176.195-.254l.02-.02c.058-.097.116-.175.175-.272 0 0 0-.02.02-.02l.175-.293v-.02c.059-.097.117-.194.156-.311.059-.098.098-.215.156-.313a7.31 7.31 0 00.644-2.83V7.495c-.078-.058-.078-.136-.078-.214z" fill="#f5f5f5"/><path d="M0 43.657h99.922v7.28H0zm.644 17.39c.039.116.098.214.156.312.059.097.098.195.156.312v.02l.176.292s0 .02.02.02c.058.097.117.175.175.273l.02.02c.058.097.117.175.195.253 0 .02.02.02.02.039.058.078.136.156.194.234l.04.04c.058.077.136.155.195.233l.039.04c.058.078.136.136.214.214l.04.04c.077.058.136.136.214.194l.058.059c.079.058.137.117.215.176.02.019.04.039.078.058.078.059.137.117.215.156.02.02.058.04.078.059.078.058.137.097.215.136.039.02.058.04.097.059.078.039.137.098.215.137.039.02.078.039.098.058.058.04.136.078.195.117l.117.059a.911.911 0 00.195.097c.039.02.078.04.137.059.058.039.136.058.195.098.039.02.097.039.136.058.059.02.137.059.195.078.059.02.098.04.157.059.058.02.117.039.195.058a.57.57 0 00.175.04l.176.058c.059.02.117.02.176.039.058.02.117.02.175.039.059.02.137.02.196.039.058.02.117.02.175.039.078.02.137.02.215.02.058 0 .097.019.156.019.078 0 .156.02.254.02.039 0 .078 0 .136.019h85.734c.04 0 .079 0 .137-.02.078 0 .156-.02.254-.02.058 0 .097-.019.156-.019.078 0 .137-.02.215-.02a.57.57 0 00.175-.038c.059-.02.137-.02.195-.04.059-.019.117-.019.176-.038.059-.02.117-.02.176-.04l.175-.058a.57.57 0 01.176-.039c.059-.02.117-.039.195-.058.059-.02.098-.04.156-.059.059-.02.137-.058.195-.078.04-.02.098-.039.137-.058a.911.911 0 00.195-.098.963.963 0 01.137-.059c.058-.039.136-.058.195-.097l.117-.059c.078-.039.137-.078.195-.117.04-.02.078-.039.098-.058a1.31 1.31 0 00.215-.137c.039-.02.058-.039.097-.059.078-.039.137-.097.215-.136.02-.02.058-.04.078-.059.078-.058.137-.097.215-.156a.268.268 0 01.078-.058c.078-.059.136-.118.214-.176l.059-.059c.078-.058.137-.136.215-.195.02-.02.039-.039.058-.039l.215-.215.039-.039c.078-.078.136-.156.195-.234l.039-.039c.058-.078.137-.156.195-.234 0-.02.02-.02.02-.039.058-.078.136-.176.195-.254l.02-.02c.058-.097.116-.175.175-.272 0 0 0-.02.02-.02l.175-.293v-.02c.059-.097.117-.194.156-.311.059-.098.098-.215.156-.313a7.31 7.31 0 00.644-2.83H0a7.69 7.69 0 00.644 2.83zm33.821-46.488v7.28H20.882v14.539h79.04v-7.28H34.465V21.82h65.457v-7.28H34.465zm-20.882 7.28H0v14.559h13.583zm86.34-14.56C99.804 3.24 96.506 0 92.447 0H20.863v14.54h13.583V7.26h65.476zM13.582.02H7.475A7.475 7.475 0 000 7.495v7.065h13.583z" fill="#41479b"/></svg>