<svg xmlns="http://www.w3.org/2000/svg" viewBox="0 0 100 65.518" width="100" height="65.518"><path d="M92.51 0H7.49A7.49 7.49 0 000 7.49v50.538a7.49 7.49 0 007.49 7.49h85.02a7.49 7.49 0 007.49-7.49V7.49A7.49 7.49 0 0092.51 0z" fill="#41479b"/><path d="M99.896 6.251A7.49 7.49 0 0092.511 0h-1.949L58.621 20.927V0H41.379v20.927L9.438 0H7.489A7.49 7.49 0 00.104 6.252l27.3 17.886H0V41.38h27.404L.104 59.266a7.49 7.49 0 007.385 6.251h1.949L41.379 44.59v20.927h17.242V44.59l31.941 20.927h1.949a7.49 7.49 0 007.385-6.251l-27.3-17.887H100V24.138H72.596z" fill="#f5f5f5"/><g fill="#ff4b55"><path d="M0 27.586v10.345h44.828v27.586h10.344V37.931H100V27.586H55.172V0H44.828v27.586z"/><path d="M4.842 65.035l36.442-23.656h-6.333L1.8 62.897a7.499 7.499 0 003.041 2.138zM67.654 41.38H61.32l35.296 22.91a7.522 7.522 0 002.4-2.553zM.79 4.14l30.807 19.998h6.334L3.022 1.478A7.52 7.52 0 00.791 4.14zm64.164 19.998L98.164 2.58A7.5 7.5 0 0095.098.46L58.621 24.137z"/></g></svg>