<svg xmlns="http://www.w3.org/2000/svg" viewBox="0 0 100 65.517" width="100" height="65.517"><path d="M0 58.028a7.49 7.49 0 007.49 7.489h85.02a7.49 7.49 0 007.49-7.49v-6.303H0zM92.51 0H7.49A7.49 7.49 0 000 7.49v6.303h100V7.49A7.49 7.49 0 0092.51 0z" fill="#c8414b"/><path fill="#ffd250" d="M0 13.794h100v37.932H0z"/><path d="M42.241 32.759l1.462-6.579a.97.97 0 00-.947-1.18h-1.03a.97.97 0 00-.947 1.18z" fill="#c8414b"/><path fill="#f5f5f5" d="M40.517 29.309h3.448v14.654h-3.448z"/><path fill="#fab446" d="M39.654 27.587h5.172v1.724h-5.172z"/><path d="M36.207 32.758h8.621v1.725h-8.621zm8.62 5.172v1.725l-5.172-1.724v-1.724zM16.38 32.758l1.461-6.578a.97.97 0 00-.947-1.18h-1.03a.97.97 0 00-.947 1.18z" fill="#c8414b"/><path d="M22.414 27.586c-.952 0-1.724.772-1.724 1.724v11.207c0 2.095 1.955 6.035 8.62 6.035 6.666 0 8.621-3.94 8.621-6.035V29.31c0-.952-.772-1.724-1.724-1.724z" fill="#f5f5f5"/><path d="M29.31 36.207h-8.62V29.31c0-.952.772-1.724 1.724-1.724h6.896zm0 0h8.62v4.31a4.31 4.31 0 11-8.62 0z" fill="#c8414b"/><path d="M20.69 36.207h8.62v4.31a4.31 4.31 0 11-8.62 0z" fill="#fab446"/><path d="M27.586 43.946v-7.74h-1.724v8.534a4.266 4.266 0 001.724-.794zm-3.448.794v-8.533h-1.724v7.739a4.27 4.27 0 001.724.794z" fill="#c8414b"/><path fill="#ffb441" d="M22.414 32.759h5.172v1.724h-5.172z"/><g fill="#fab446"><path d="M22.414 29.31h5.172v1.724h-5.172z"/><path d="M23.275 30.335h3.449v3.123h-3.449z"/></g><path fill="#f5f5f5" d="M14.654 29.309h3.448v14.654h-3.448z"/><path d="M13.793 43.104h5.172v1.724h-5.172zm0-15.517h5.172v1.724h-5.172z" fill="#fab446"/><path fill="#5064aa" d="M12.932 44.827h6.896v1.724h-6.896z"/><path fill="#fab446" d="M40.517 43.104h5.172v1.724h-5.172z"/><path fill="#5064aa" d="M38.793 44.827h6.896v1.724h-6.896z"/><path fill="#fab446" d="M24.139 25.862h10.345v1.724H24.139z"/><path fill="#ffb441" d="M28.449 20.69h1.724v5.172h-1.724z"/><g fill="#f5f5f5"><path d="M27.586 23.276A2.589 2.589 0 0125 20.69a2.589 2.589 0 012.586-2.587 2.589 2.589 0 012.586 2.587 2.589 2.589 0 01-2.586 2.586zm0-3.449a.863.863 0 10.001 1.726.863.863 0 000-1.726z"/><path d="M31.034 23.276a2.589 2.589 0 01-2.586-2.586 2.589 2.589 0 012.586-2.587 2.589 2.589 0 012.587 2.587 2.59 2.59 0 01-2.587 2.586zm0-3.449a.863.863 0 10.002 1.726.863.863 0 00-.002-1.726z"/><path d="M34.483 25a2.589 2.589 0 01-2.586-2.586 2.589 2.589 0 012.586-2.586 2.589 2.589 0 012.586 2.586A2.59 2.59 0 0134.483 25zm0-3.448a.863.863 0 100 1.725.863.863 0 000-1.725zM24.138 25a2.589 2.589 0 01-2.586-2.586 2.589 2.589 0 012.586-2.586 2.589 2.589 0 012.586 2.586A2.589 2.589 0 0124.138 25zm0-3.448a.863.863 0 10.001 1.725.863.863 0 00-.001-1.725z"/></g><path d="M34.483 39.655v.862a.863.863 0 01-1.724 0v-.862h1.724m1.724-1.724h-5.173v2.586a2.589 2.589 0 002.586 2.586 2.589 2.589 0 002.587-2.586v-2.586z" fill="#fab446"/><path d="M33.62 34.483a1.724 1.724 0 01-1.724-1.724v-1.725a1.724 1.724 0 013.448 0v1.725c0 .952-.771 1.724-1.723 1.724z" fill="#ffa0d2"/><circle cx="29.31" cy="36.206" r="2.586" fill="#5064aa"/><path fill="#fab446" d="M28.449 17.241h1.724v5.172h-1.724z"/><path d="M24.138 25.862l-1.724-1.724 1.01-1.01a8.326 8.326 0 0111.773 0l1.01 1.01-1.724 1.724z" fill="#c8414b"/><g transform="translate(0 -17.241) scale(.19531)" fill="#ffd250"><circle cx="150.07" cy="211.86" r="4.414"/><circle cx="132.41" cy="211.86" r="4.414"/><circle cx="167.72" cy="211.86" r="4.414"/></g><path d="M13.793 32.758h8.621v1.725h-8.621zm0 5.172v1.725l5.172-1.724v-1.724z" fill="#c8414b"/></svg>