<svg xmlns="http://www.w3.org/2000/svg" viewBox="0 0 100 65.517" width="100" height="65.517"><path d="M92.51 65.517H7.49A7.49 7.49 0 010 58.027V7.49A7.49 7.49 0 017.49 0h85.02A7.49 7.49 0 01100 7.49v50.538a7.49 7.49 0 01-7.49 7.489z" fill="#ff4b55"/><path d="M92.51 0h-.375L50 27.606 7.865 0h-.376A7.491 7.491 0 00.31 5.356l41.826 27.403L.31 60.16a7.491 7.491 0 007.18 5.356h.375L50 37.911l42.135 27.606h.375c3.395 0 6.26-2.26 7.18-5.356L57.863 32.76 99.69 5.356A7.491 7.491 0 0092.51 0z" fill="#73af00"/><path fill="#f5f5f5" d="M45.69 0v28.448H0v8.62h45.69v28.449h8.62V37.069H100v-8.62H54.31V0z"/></svg>