<svg xmlns="http://www.w3.org/2000/svg" viewBox="0 0 100.001 65.518" width="100.001" height="65.518"><path d="M0 58.029a7.49 7.49 0 007.49 7.489h85.022A7.49 7.49 0 00100 58.036V43.68H0z" fill="#41479b"/><path d="M92.512 0H7.489A7.49 7.49 0 000 7.49v14.35h100V7.481A7.49 7.49 0 0092.513 0z" fill="#ff4b55"/><path fill="#f5f5f5" d="M0 21.839h100.001v21.838H0z"/><g fill="#ff4b55"><path d="M37.932 22.413h4.827v5.518h-4.827zm9.654 0h4.828v5.518h-4.828z"/><path d="M42.76 27.93h4.828v5.518H42.76zm14.483-5.517h4.827v5.518h-4.827zm-4.829 5.517h4.828v5.518h-4.828z"/></g><g fill="#f5f5f5"><path d="M42.76 22.413h4.828v5.518H42.76zm9.654 0h4.828v5.518h-4.828zM37.932 27.93h4.827v5.518h-4.827z"/><path d="M47.586 27.93h4.828v5.518h-4.828zm9.657 0h4.827v5.518h-4.827z"/></g><path d="M47.586 33.448h4.828v5.518h-4.828zm-4.826 5.518h4.828v5.517H42.76zm9.654 0h4.828v5.517h-4.828z" fill="#ff4b55"/><path d="M42.76 33.448h4.828v5.518H42.76zm9.654 0h4.828v5.518h-4.828zm-4.828 5.518h4.828v5.517h-4.828z" fill="#f5f5f5"/><g fill="#ff4b55"><path d="M62.07 22.414v15.517c0 6.666-5.404 12.07-12.07 12.07-6.665 0-12.069-5.404-12.069-12.07V22.414H62.07m.862-.862H37.07V37.93c0 7.13 5.8 12.931 12.931 12.931 7.13 0 12.931-5.8 12.931-12.93V22.413z"/><path d="M42.759 38.966v-5.518H37.93v4.483c0 .35.023.693.052 1.035z"/></g><path d="M62.017 38.966h-4.775v5.517h2.885a11.987 11.987 0 001.89-5.517zm-22.144 5.517h2.886v-5.517h-4.776a11.989 11.989 0 001.89 5.517z" fill="#f5f5f5"/><path d="M57.242 38.966h4.775c.03-.342.052-.685.052-1.035v-4.483h-4.827zM42.759 47.57v-3.087h-2.886a12.112 12.112 0 002.886 3.087zm17.368-3.087h-2.885v3.087a12.127 12.127 0 002.885-3.087z" fill="#ff4b55"/><path d="M42.759 47.57a11.992 11.992 0 004.827 2.188v-5.275H42.76zm9.655 2.188a11.993 11.993 0 004.828-2.188v-3.087h-4.828z" fill="#f5f5f5"/><path d="M52.414 44.483h-4.828v5.275a12.118 12.118 0 004.828 0v-5.275z" fill="#ff4b55"/><path d="M41.264 13.284a35.337 35.337 0 00-3.22-.347 37.104 37.104 0 00-2.422 2.178l2.31 5.575a31.558 31.558 0 014.735-1.537l-1.403-5.869zm11.666-.915A36.095 36.095 0 0050 11.048a36.26 36.26 0 00-2.93 1.321l.47 6.016a31.477 31.477 0 014.92 0l.47-6.016zm11.449 2.746a37.268 37.268 0 00-2.422-2.178c-1.095.067-2.17.185-3.22.347l-1.404 5.87c1.607.383 3.19.896 4.736 1.536l2.31-5.575z" fill="#4173cd"/><path d="M47.07 12.369a35.762 35.762 0 00-3.104-.849 36.593 36.593 0 00-2.702 1.764l1.403 5.87a31.532 31.532 0 014.873-.769l-.47-6.016zm11.667.915a36.612 36.612 0 00-2.702-1.764 35.69 35.69 0 00-3.104.849l-.471 6.016c1.637.128 3.267.384 4.873.768l1.404-5.869z" fill="#41479b"/><path d="M47.258 14.775a35.098 35.098 0 00-5.433.857l-.28-1.174a36.42 36.42 0 015.619-.886l.094 1.203zm.189 2.407c-1.7.133-3.392.399-5.06.797l-.281-1.173c1.73-.414 3.484-.69 5.246-.827l.095 1.203z" fill="#ff4b55"/><path d="M55.728 17.587c-.42-.075-.843-.141-1.266-.2-.696-.096-1.214-.686-1.153-1.35.06-.664.725-1.145 1.482-1.04.454.062.907.133 1.36.214.753.133 1.24.797 1.094 1.446-.147.65-.824 1.052-1.517.93z" fill="#ffe15a"/><path d="M62.531 19.575a32.798 32.798 0 00-4.917-1.596l.28-1.173c1.73.413 3.435.965 5.099 1.654l-.462 1.115z" fill="#ff4b55"/><path d="M62.1 15.954c-.17.47-.745.694-1.288.517-.544-.177-.876-.694-.739-1.174.138-.481.72-.736 1.297-.548.576.186.901.735.73 1.205zm-22.173-.657c.137.481-.195.998-.738 1.174-.543.176-1.118-.048-1.29-.517-.17-.47.155-1.018.732-1.205.576-.187 1.159.067 1.296.548zm9.798-.79c0 .4-.358.725-.804.739-.445.014-.824-.29-.848-.688-.023-.398.336-.743.803-.758.467-.015.847.307.849.707zm2.202.051c-.024.4-.403.702-.848.687-.445-.013-.804-.339-.803-.739.001-.4.381-.722.848-.706.467.014.826.36.803.758zm-1.144 1.81c-.011.4-.361.714-.783.714-.421 0-.771-.314-.783-.714-.01-.399.34-.733.783-.732.444-.001.794.333.783.732z" fill="#ffe15a"/></svg>