<svg xmlns="http://www.w3.org/2000/svg" viewBox="0 0 100.001 65.518" width="100.001" height="65.518"><path d="M92.511 0H7.49A7.49 7.49 0 000 7.49v50.539a7.49 7.49 0 007.49 7.489h85.02a7.49 7.49 0 007.49-7.49V7.49A7.49 7.49 0 0092.51 0z" fill="#ff4b55"/><path d="M49.507 26.851l2.703 3.535 4.22-1.412a.259.259 0 01.295.392l-2.527 3.663 2.647 3.577a.259.259 0 01-.282.402L52.3 35.737l-2.584 3.623a.26.26 0 01-.47-.144l-.108-4.449-4.244-1.338a.259.259 0 01-.009-.49l4.198-1.479-.04-4.45a.259.259 0 01.465-.159zM34.562 46.56c-7.616 0-13.794-6.178-13.794-13.801 0-7.61 6.178-13.802 13.794-13.802 2.834 0 5.447.872 7.625 2.347.333.226.714-.212.435-.503-3.255-3.384-7.861-5.448-12.969-5.274-8.775.3-16.039 7.335-16.6 16.097C12.412 41.66 20.359 50 30.253 50c4.873 0 9.254-2.037 12.381-5.295.277-.288-.105-.72-.435-.495a13.542 13.542 0 01-7.636 2.35z" fill="#f5f5f5"/></svg>