<svg xmlns="http://www.w3.org/2000/svg" viewBox="0 0 100.001 65.518" width="100.001" height="65.518"><path d="M92.511 0H7.49A7.49 7.49 0 000 7.49v50.539a7.49 7.49 0 007.49 7.489h85.02a7.49 7.49 0 007.49-7.49V7.49A7.49 7.49 0 0092.51 0z" fill="#f5f5f5"/><path d="M.412 5.04h99.177A7.49 7.49 0 0092.51 0H7.49A7.49 7.49 0 00.412 5.04zM0 20.16h100v5.039H0zm0-10.08h100v5.039H0zm0 23.475c0 .952.772 1.724 1.724 1.724h98.277v-5.04H0zM0 50.4h100v5.04H0zm99.589 10.078H.412a7.49 7.49 0 007.077 5.04h85.022a7.49 7.49 0 007.078-5.04zM0 40.32h100v5.04H0z" fill="#ff4b55"/><path d="M1.724 35.279h43.104c.952 0 1.724-.772 1.724-1.724V1.725C46.552.771 45.78 0 44.828 0H7.489A7.49 7.49 0 000 7.49v26.065c0 .952.772 1.724 1.724 1.724z" fill="#41479b"/><path d="M4.842 3.957l.381 1.145 1.207.01c.156 0 .22.2.095.293l-.97.716.364 1.15a.163.163 0 01-.25.182l-.981-.702-.982.702a.163.163 0 01-.25-.181l.365-1.15-.971-.717a.163.163 0 01.095-.294l1.207-.009.381-1.144a.162.162 0 01.309 0zm0 5.988l.381 1.144 1.207.01c.156 0 .22.2.095.293l-.97.716.364 1.15a.163.163 0 01-.25.182l-.981-.701-.982.701a.163.163 0 01-.25-.181l.365-1.15-.971-.717a.163.163 0 01.095-.293l1.207-.01.381-1.144a.162.162 0 01.309 0zm0 5.987l.381 1.144 1.207.01c.156.001.22.2.095.293l-.97.717.364 1.15a.163.163 0 01-.25.181l-.981-.701-.982.701a.163.163 0 01-.25-.18l.365-1.151-.971-.717a.163.163 0 01.095-.293l1.207-.01.381-1.144a.162.162 0 01.309 0zm0 5.988l.381 1.144 1.207.009c.156.001.22.2.095.293l-.97.717.364 1.15a.163.163 0 01-.25.181l-.981-.7-.982.7a.163.163 0 01-.25-.18l.365-1.15-.971-.718a.163.163 0 01.095-.293l1.207-.01.381-1.144a.162.162 0 01.309 0zm0 5.986l.381 1.145 1.207.009c.156.001.22.2.095.293l-.97.717.364 1.15a.163.163 0 01-.25.182l-.981-.702-.982.702a.163.163 0 01-.25-.181l.365-1.15-.971-.717a.163.163 0 01.095-.294l1.207-.009.381-1.145a.162.162 0 01.309 0zM9.489 6.893l.381 1.144 1.207.01c.156 0 .22.2.095.293l-.97.717.364 1.15a.163.163 0 01-.25.181l-.981-.701-.982.701a.163.163 0 01-.25-.181l.365-1.15-.97-.717a.163.163 0 01.094-.293l1.207-.01.382-1.144a.162.162 0 01.308 0zm0 5.987l.381 1.145 1.207.009c.156.001.22.2.095.293l-.97.717.364 1.15a.163.163 0 01-.25.181l-.981-.701-.982.701a.163.163 0 01-.25-.18l.365-1.151-.97-.717a.163.163 0 01.094-.293l1.207-.01.382-1.144a.162.162 0 01.308 0zm0 5.987l.381 1.145 1.207.009c.156.001.22.2.095.293l-.97.717.364 1.15a.163.163 0 01-.25.182l-.981-.702-.982.702a.163.163 0 01-.25-.182l.365-1.15-.97-.717a.163.163 0 01.094-.293l1.207-.01.382-1.144a.162.162 0 01.308 0zm0 5.987L9.87 26l1.207.01c.156 0 .22.2.095.293l-.97.716.364 1.15a.163.163 0 01-.25.182l-.981-.702-.982.702a.163.163 0 01-.25-.181l.365-1.15-.97-.717a.163.163 0 01.094-.294L8.8 26l.382-1.145a.162.162 0 01.308 0zm4.647-20.897l.381 1.145 1.207.01c.156 0 .22.2.095.293l-.97.716.364 1.15a.163.163 0 01-.25.182l-.981-.702-.982.702a.163.163 0 01-.25-.182l.365-1.15-.97-.716a.163.163 0 01.095-.294l1.206-.009.382-1.145a.162.162 0 01.308 0zm0 5.988l.381 1.144 1.207.01c.156 0 .22.2.095.293l-.97.716.364 1.15a.163.163 0 01-.25.182l-.981-.702-.982.702a.163.163 0 01-.25-.181l.365-1.15-.97-.717a.163.163 0 01.095-.294l1.206-.009.382-1.144a.162.162 0 01.308 0zm0 5.987l.381 1.144 1.207.01c.156.001.22.2.095.293l-.97.717.364 1.15a.163.163 0 01-.25.181l-.981-.701-.982.701a.163.163 0 01-.25-.181l.365-1.15-.97-.717a.163.163 0 01.095-.293l1.206-.01.382-1.144a.162.162 0 01.308 0zm0 5.988l.381 1.144 1.207.009c.156.001.22.2.095.293l-.97.717.364 1.15a.163.163 0 01-.25.181l-.981-.701-.982.701a.163.163 0 01-.25-.18l.365-1.151-.97-.717a.163.163 0 01.095-.293l1.206-.01.382-1.144a.162.162 0 01.308 0zm0 5.986l.381 1.145 1.207.009c.156.001.22.2.095.293l-.97.717.364 1.15a.163.163 0 01-.25.182l-.981-.702-.982.702a.163.163 0 01-.25-.182l.365-1.15-.97-.717a.163.163 0 01.095-.293l1.206-.01.382-1.144a.162.162 0 01.308 0zm4.647-21.013l.382 1.144 1.206.01c.156 0 .221.2.096.293l-.971.717.364 1.15a.163.163 0 01-.25.181l-.981-.701-.981.701a.163.163 0 01-.25-.181l.364-1.15-.97-.717a.163.163 0 01.095-.293l1.206-.01.382-1.144a.162.162 0 01.308 0zm0 5.987l.382 1.145 1.206.009c.156.001.221.2.096.293l-.971.717.364 1.15a.163.163 0 01-.25.181l-.981-.701-.981.701a.163.163 0 01-.25-.18l.364-1.151-.97-.717a.163.163 0 01.095-.293l1.206-.01.382-1.144a.162.162 0 01.308 0zm0 5.987l.382 1.145 1.206.009c.156.001.221.2.096.293l-.971.717.364 1.15a.163.163 0 01-.25.182l-.981-.702-.981.702a.163.163 0 01-.25-.182l.364-1.15-.97-.717a.163.163 0 01.095-.293l1.206-.01.382-1.144a.162.162 0 01.308 0zm0 5.987L19.165 26l1.206.01c.156 0 .221.2.096.293l-.971.716.364 1.15a.163.163 0 01-.25.182l-.981-.702-.981.702a.163.163 0 01-.25-.181l.364-1.15-.97-.717a.163.163 0 01.095-.294L18.093 26l.382-1.145a.162.162 0 01.308 0zM23.43 3.957l.382 1.145 1.206.01c.157 0 .221.2.096.293l-.97.716.363 1.15a.163.163 0 01-.25.182l-.981-.702-.982.702a.163.163 0 01-.25-.181l.365-1.15-.97-.717a.163.163 0 01.095-.294l1.206-.009.382-1.144a.162.162 0 01.308 0zm0 5.988l.382 1.144 1.206.01c.157 0 .221.2.096.293l-.97.716.363 1.15a.163.163 0 01-.25.182l-.981-.702-.982.702a.163.163 0 01-.25-.181l.365-1.15-.97-.717a.163.163 0 01.095-.294l1.206-.009.382-1.144a.163.163 0 01.308 0zm0 5.987l.382 1.144 1.206.01c.157.001.221.2.096.293l-.97.717.363 1.15a.163.163 0 01-.25.181l-.981-.701-.982.701a.163.163 0 01-.25-.181l.365-1.15-.97-.717a.163.163 0 01.095-.294l1.206-.009.382-1.144a.163.163 0 01.308 0zm0 5.988l.382 1.144 1.206.009c.157.001.221.2.096.293l-.97.717.363 1.15a.163.163 0 01-.25.181l-.981-.701-.982.701a.163.163 0 01-.25-.18l.365-1.151-.97-.717a.163.163 0 01.095-.293l1.206-.01.382-1.144a.163.163 0 01.308 0zm0 5.986l.382 1.145 1.206.009c.157.001.221.2.096.293l-.97.717.363 1.15a.163.163 0 01-.25.182l-.981-.702-.982.702a.163.163 0 01-.25-.182l.365-1.15-.97-.717a.163.163 0 01.095-.293l1.206-.01.382-1.144a.163.163 0 01.308 0zm4.647-21.013l.382 1.144 1.206.01c.157 0 .221.2.096.293l-.97.717.363 1.15a.163.163 0 01-.25.181l-.98-.701-.982.701a.163.163 0 01-.25-.181l.364-1.15-.97-.717a.163.163 0 01.095-.293l1.206-.01.382-1.144a.162.162 0 01.308 0zm0 5.987l.382 1.145 1.206.009c.157.001.221.2.096.293l-.97.717.363 1.15a.163.163 0 01-.25.181l-.98-.701-.982.701a.163.163 0 01-.25-.18l.364-1.151-.97-.717a.163.163 0 01.095-.293l1.206-.01.382-1.144a.162.162 0 01.308 0zm0 5.987l.382 1.145 1.206.009c.157.001.221.2.096.293l-.97.717.363 1.15a.163.163 0 01-.25.182l-.98-.702-.982.702a.163.163 0 01-.25-.182l.364-1.15-.97-.717a.163.163 0 01.095-.293l1.206-.01.382-1.144a.162.162 0 01.308 0zm0 5.987L28.46 26l1.206.01c.157 0 .221.2.096.293l-.97.716.363 1.15a.163.163 0 01-.25.182l-.98-.702-.982.702a.163.163 0 01-.25-.181l.364-1.15-.97-.717a.163.163 0 01.095-.294L27.387 26l.382-1.145a.162.162 0 01.308 0zm4.648-20.897l.381 1.145 1.207.01c.156 0 .22.2.095.293l-.97.716.364 1.15a.163.163 0 01-.25.182l-.981-.702-.982.702a.163.163 0 01-.25-.182l.365-1.15-.971-.716a.163.163 0 01.095-.294l1.207-.009.381-1.145a.162.162 0 01.309 0zm0 5.988l.381 1.144 1.207.01c.156 0 .22.2.095.293l-.97.716.364 1.15a.163.163 0 01-.25.182l-.981-.702-.982.702a.163.163 0 01-.25-.181l.365-1.15-.971-.717a.163.163 0 01.095-.294l1.207-.009.381-1.144a.162.162 0 01.309 0zm0 5.987l.381 1.144 1.207.01c.156.001.22.2.095.293l-.97.717.364 1.15a.163.163 0 01-.25.181l-.981-.701-.982.701a.163.163 0 01-.25-.181l.365-1.15-.971-.717a.163.163 0 01.095-.293l1.207-.01.381-1.144a.162.162 0 01.309 0zm0 5.988l.381 1.144 1.207.009c.156.001.22.2.095.293l-.97.717.364 1.15a.163.163 0 01-.25.181l-.981-.701-.982.701a.163.163 0 01-.25-.18l.365-1.151-.971-.717a.163.163 0 01.095-.293l1.207-.01.381-1.144a.162.162 0 01.309 0zm0 5.986l.381 1.145 1.207.009c.156.001.22.2.095.293l-.97.717.364 1.15a.163.163 0 01-.25.182l-.981-.702-.982.702a.163.163 0 01-.25-.182l.365-1.15-.971-.717a.163.163 0 01.095-.293l1.207-.01.381-1.144a.162.162 0 01.309 0zm4.647-21.013l.381 1.144 1.207.01c.156 0 .22.2.095.293l-.97.717.364 1.15a.163.163 0 01-.25.181l-.981-.701-.982.701a.163.163 0 01-.25-.181l.365-1.15-.97-.717a.163.163 0 01.094-.293l1.207-.01.382-1.144a.162.162 0 01.308 0zm0 5.987l.381 1.145 1.207.009c.156.001.22.2.095.293l-.97.717.364 1.15a.163.163 0 01-.25.181l-.981-.701-.982.701a.163.163 0 01-.25-.18l.365-1.151-.97-.717a.163.163 0 01.094-.293l1.207-.01.382-1.144a.162.162 0 01.308 0zm0 5.987l.381 1.145 1.207.009c.156.001.22.2.095.293l-.97.717.364 1.15a.163.163 0 01-.25.182l-.981-.702-.982.702a.163.163 0 01-.25-.182l.365-1.15-.97-.717a.163.163 0 01.094-.293l1.207-.01.382-1.144a.162.162 0 01.308 0zm0 5.987L37.753 26l1.207.01c.156 0 .22.2.095.293l-.97.716.364 1.15a.163.163 0 01-.25.182l-.981-.702-.982.702a.163.163 0 01-.25-.181l.365-1.15-.97-.717a.163.163 0 01.094-.294L36.682 26l.382-1.145a.162.162 0 01.308 0zm4.647-20.897l.382 1.145 1.206.01c.156 0 .221.2.095.293l-.97.716.364 1.15a.163.163 0 01-.25.182l-.981-.702-.982.702a.163.163 0 01-.25-.182l.365-1.15-.97-.716a.163.163 0 01.095-.294l1.206-.009.382-1.145a.162.162 0 01.308 0zm0 5.988l.382 1.144 1.206.01c.156 0 .221.2.095.293l-.97.716.364 1.15a.163.163 0 01-.25.182l-.981-.702-.982.702a.163.163 0 01-.25-.181l.365-1.15-.97-.717a.163.163 0 01.095-.294l1.206-.009.382-1.144a.162.162 0 01.308 0zm0 5.987l.382 1.144 1.206.01c.156.001.221.2.095.293l-.97.717.364 1.15a.163.163 0 01-.25.181l-.981-.701-.982.701a.163.163 0 01-.25-.181l.365-1.15-.97-.717a.163.163 0 01.095-.293l1.206-.01.382-1.144a.162.162 0 01.308 0zm0 5.988l.382 1.144 1.206.009c.156.001.221.2.095.293l-.97.717.364 1.15a.163.163 0 01-.25.181l-.981-.701-.982.701a.163.163 0 01-.25-.18l.365-1.151-.97-.717a.163.163 0 01.095-.293l1.206-.01.382-1.144a.162.162 0 01.308 0zm0 5.986l.382 1.145 1.206.009c.156.001.221.2.095.293l-.97.717.364 1.15a.163.163 0 01-.25.182l-.981-.702-.982.702a.163.163 0 01-.25-.182l.365-1.15-.97-.717a.163.163 0 01.095-.293l1.206-.01.382-1.144a.162.162 0 01.308 0z" fill="#f5f5f5"/></svg>