<svg xmlns="http://www.w3.org/2000/svg" version="1.1" id="Layer_1" x="0" y="0" viewBox="-49 141 100 100" xml:space="preserve" width="100" height="100"><style type="text/css" id="style2">.st1{fill:#ffda44}</style><circle cx="1" cy="191" r="50" id="circle4" fill="#d80027" stroke-width=".195"/><g id="g16" transform="translate(-39.43 113.46) scale(.19531)"><path class="st1" id="polygon6" fill="#ffda44" d="M126.9 406.9l22.1 68-57.9-42-57.9 42 22.2-68-57.9-42.1H69l22.1-68 22.1 68h71.5z"/><path class="st1" id="polygon8" fill="#ffda44" d="M227.1 503.9L210.2 483l25.9 6.9 14.6-22.5 1.4 26.8 26 6.9-25.1 9.6 1.5 26.8-16.9-20.8-25 9.7z"/><path class="st1" id="polygon10" fill="#ffda44" d="M301 435l7.9-25.6 8.7 25.4 26.8-.3-21.5 16 8.6 25.4-21.9-15.5-21.5 16.1 8-25.6-21.9-15.5z"/><path class="st1" id="polygon12" fill="#ffda44" d="M314.3 367.9l-11.8 24-4.6-26.4-26.6-3.8 23.8-12.5-4.6-26.5 19.2 18.7 23.7-12.5-11.8 24.1 19.2 18.7z"/><path class="st1" id="polygon14" fill="#ffda44" d="M252 299.1l-1.9 26.8-14.1-22.8-26.1 6.4 17.3-20.5-14.2-22.7 24.9 10.1 17.3-20.5-2 26.7 24.9 10.1z"/></g></svg>