<svg xmlns="http://www.w3.org/2000/svg" viewBox="0 0 100 100" width="100" height="100"><circle cx="50" cy="50" r="50" fill="#f0f0f0"/><g fill="#338af3"><path d="M50 36.956h48.278a49.719 49.719 0 00-5.617-13.043H50zM18.876 89.13h62.248a50.253 50.253 0 0011.537-13.043H7.34A50.263 50.263 0 0018.876 89.13zm-1.485-77.033A50.245 50.245 0 007.34 23.913h10.05zM50 50V36.956H30.435V50H17.39V36.956H1.722A50.055 50.055 0 000 50c0 4.513.602 8.885 1.722 13.044h96.556A50.063 50.063 0 00100 50z"/><path d="M50 0a49.844 49.844 0 00-19.565 3.974v19.94H50V10.87h31.124A49.786 49.786 0 0050 0z"/></g></svg>