<svg xmlns="http://www.w3.org/2000/svg" viewBox="0 0 100 100" width="100" height="100"><circle cx="50" cy="50" r="50" fill="#f0f0f0"/><path d="M10.336 19.559c-3.928 5.11-6.89 11-8.614 17.398h26.012zm87.942 17.398a49.822 49.822 0 00-8.614-17.398L72.267 36.957zM1.722 63.044a49.823 49.823 0 008.614 17.397l17.397-17.397zm78.719-52.708a49.82 49.82 0 00-17.398-8.614v26.012zM19.559 89.664c5.11 3.927 11 6.889 17.398 8.614V72.267zM36.956 1.722a49.823 49.823 0 00-17.397 8.614l17.397 17.397zm26.088 96.556a49.823 49.823 0 0017.397-8.614L63.044 72.267zm9.223-35.234L89.664 80.44a49.82 49.82 0 008.614-17.397z" fill="#0052b4"/><g fill="#d80027"><path d="M99.577 43.478H56.522V.423a50.5 50.5 0 00-13.044 0v43.055H.423a50.5 50.5 0 000 13.044h43.055v43.055a50.495 50.495 0 0013.044 0V56.522h43.055a50.495 50.495 0 000-13.044z"/><path d="M63.044 63.044l22.311 22.311a50.124 50.124 0 002.94-3.21l-19.104-19.1h-6.148zm-26.088 0L14.645 85.355a50.124 50.124 0 003.21 2.94l19.101-19.103zm0-26.087L14.645 14.644a50.124 50.124 0 00-2.94 3.21l19.103 19.102h6.148zm26.088 0l22.311-22.312a50.064 50.064 0 00-3.21-2.94l-19.1 19.104z"/></g></svg>