<svg xmlns="http://www.w3.org/2000/svg" viewBox="0 0 100 100" width="100" height="100"><circle cx="50" cy="50" r="50" fill="#d80027"/><g fill="#f0f0f0"><path d="M54.59 50.004l4.102 5.653-6.641-2.162-4.11 5.648.005-6.984-6.642-2.163 6.644-2.154.005-6.985 4.102 5.653 6.644-2.154z"/><path d="M36.757 64.13c-7.804 0-14.13-6.326-14.13-14.13 0-7.804 6.326-14.13 14.13-14.13 2.433 0 4.722.615 6.721 1.698a17.33 17.33 0 00-12.156-4.96c-9.605 0-17.391 7.787-17.391 17.392s7.786 17.39 17.389 17.39a17.33 17.33 0 0012.157-4.96 14.063 14.063 0 01-6.721 1.7z"/></g></svg>