<svg xmlns="http://www.w3.org/2000/svg" viewBox="0 0 100 100" width="100" height="100"><circle cx="50" cy="50" r="50" fill="#f0f0f0"/><path d="M47.826 50H100c0-4.513-.602-8.885-1.722-13.044H47.826zm0-26.087h44.835A50.264 50.264 0 0081.124 10.87H47.826zM50 100a49.785 49.785 0 0031.124-10.87H18.876A49.785 49.785 0 0050 100zM7.339 76.087H92.66a49.702 49.702 0 005.617-13.044H1.722A49.702 49.702 0 007.34 76.087z" fill="#d80027"/><path d="M23.16 7.808h4.557l-4.238 3.08 1.619 4.982-4.238-3.08-4.238 3.08 1.398-4.305a50.275 50.275 0 00-9.697 10.808h1.46l-2.698 1.96c-.42.702-.824 1.414-1.21 2.137l1.288 3.965-2.403-1.747a49.52 49.52 0 00-1.635 3.882l1.419 4.369h5.239l-4.239 3.079L7.164 45l-4.239-3.08-2.538 1.845A50.482 50.482 0 000 50h50V0a49.763 49.763 0 00-26.84 7.808zM25.099 45l-4.238-3.08L16.622 45l1.619-4.982-4.238-3.08h5.238l1.619-4.982 1.619 4.983h5.238l-4.238 3.079zM23.48 25.453l1.62 4.982-4.239-3.08-4.238 3.08 1.619-4.982-4.238-3.08h5.238l1.619-4.982 1.619 4.982h5.238zM43.033 45l-4.238-3.08L34.557 45l1.619-4.982-4.239-3.08h5.239l1.619-4.982 1.618 4.983h5.24l-4.24 3.079zm-1.62-19.547l1.62 4.982-4.238-3.08-4.238 3.08 1.619-4.982-4.239-3.08h5.239l1.619-4.982 1.618 4.982h5.24zm0-14.566l1.62 4.983-4.238-3.08-4.238 3.08 1.619-4.983-4.239-3.079h5.239l1.619-4.982 1.618 4.982h5.24z" fill="#0052b4"/></svg>